<?xml version="1.0" standalone="no"?>
<!DOCTYPE svg PUBLIC "-//W3C//DTD SVG 20010904//EN"
 "http://www.w3.org/TR/2001/REC-SVG-20010904/DTD/svg10.dtd">
<svg version="1.0" xmlns="http://www.w3.org/2000/svg"
 width="994.000000pt" height="1280.000000pt" viewBox="0 0 994.000000 1280.000000"
 preserveAspectRatio="xMidYMid meet">
<metadata>
Created by potrace 1.15, written by Peter Selinger 2001-2017
</metadata>
<g transform="translate(0.000000,1280.000000) scale(0.100000,-0.100000)"
fill="#512f11" stroke="none">
<path d="M2985 12771 c-234 -64 -439 -203 -468 -319 -11 -46 23 -146 77 -227
35 -51 173 -383 181 -435 10 -59 38 -115 86 -167 56 -61 134 -226 257 -544
178 -460 278 -859 347 -1385 19 -148 44 -325 55 -394 10 -69 29 -210 40 -315
52 -463 113 -794 200 -1084 23 -73 39 -135 38 -136 -2 -1 -79 -21 -173 -45
-502 -126 -828 -295 -910 -471 -79 -170 38 -323 362 -475 65 -30 129 -60 142
-67 14 -7 48 -53 79 -107 61 -106 252 -473 252 -485 0 -4 -134 -4 -297 -1
-284 7 -871 -5 -903 -18 -8 -4 -16 -19 -17 -34 0 -15 -4 -111 -8 -214 l-7
-188 -313 0 -312 0 -7 133 c-19 396 -17 375 -40 383 -33 11 -1147 16 -1274 6
-62 -5 -114 -11 -116 -13 -2 -2 -14 -191 -25 -419 -12 -228 -27 -514 -33 -635
-9 -171 -9 -251 1 -360 17 -194 47 -421 72 -540 80 -393 251 -876 348 -987 88
-101 154 -243 190 -409 37 -175 43 -295 38 -869 -4 -579 -5 -593 -57 -750 -27
-81 -90 -190 -129 -223 -39 -33 -148 -68 -341 -112 -204 -46 -255 -62 -291
-92 -37 -31 -37 -58 0 -92 56 -52 160 -81 397 -110 291 -36 512 -45 722 -32
167 11 411 37 531 57 l44 7 -33 -62 c-66 -124 -109 -143 -548 -242 -126 -28
-176 -54 -180 -93 -5 -40 28 -71 107 -100 95 -35 135 -43 336 -65 405 -46 611
-46 1016 0 256 28 409 74 439 130 33 61 -21 95 -226 140 -286 63 -391 97 -438
145 -26 27 -86 123 -86 138 0 3 28 -8 63 -23 74 -34 126 -46 270 -66 437 -61
815 -57 1277 11 168 24 294 95 275 154 -12 38 -70 59 -340 119 -199 45 -296
81 -339 127 -39 42 -103 178 -126 267 -39 153 -42 222 -37 828 l4 584 26 122
c43 198 88 300 187 423 98 123 212 416 314 810 70 268 119 628 120 885 1 193
-31 730 -44 755 -6 10 -10 22 -10 27 2 32 76 -161 144 -372 123 -384 198 -713
248 -1085 19 -142 22 -211 22 -495 1 -439 -2 -457 -164 -1085 -101 -390 -133
-531 -160 -710 -39 -256 -36 -438 11 -615 44 -169 123 -301 263 -440 142 -141
302 -245 549 -357 460 -208 844 -316 1357 -380 153 -19 756 -16 916 4 105 14
128 14 174 2 131 -34 545 -74 765 -74 234 0 638 39 777 76 121 31 198 87 184
132 -11 33 -81 62 -238 97 -161 36 -289 69 -328 83 -21 8 -15 13 61 49 178 87
400 244 534 378 311 310 392 657 275 1175 -27 121 -74 301 -105 399 -34 109
-118 406 -153 541 -87 334 -112 540 -113 930 0 520 65 975 236 1645 41 163 54
195 85 207 4 2 14 31 22 66 14 54 14 62 1 62 -17 0 -19 -11 37 170 88 285 218
660 234 676 6 6 38 21 71 34 162 62 345 174 410 252 41 48 75 127 75 174 0
168 -263 352 -703 488 -546 170 -1232 278 -2117 336 -192 12 -900 33 -906 27
-3 -3 2 -22 11 -42 8 -21 14 -40 12 -42 -2 -2 -50 99 -107 224 -309 684 -478
938 -1055 1584 -238 266 -625 725 -717 850 -203 275 -371 549 -532 869 -141
279 -196 411 -212 510 -8 47 -14 88 -14 91 0 4 -20 34 -45 68 -53 72 -198 377
-221 464 -18 69 -71 158 -109 183 -40 26 -155 28 -240 5z m557 -5211 c-143
-54 -277 -127 -331 -180 -25 -24 -39 -33 -30 -20 21 32 99 92 171 130 63 34
255 109 278 109 8 0 -31 -17 -88 -39z m-52 -1469 c41 -3 -186 -6 -505 -6 -319
0 -524 2 -455 5 175 8 870 9 960 1z m-362 -18 c-49 -2 -127 -2 -175 0 -49 1
-9 3 87 3 96 0 136 -2 88 -3z m-730 -10 c-10 -2 -26 -2 -35 0 -10 3 -2 5 17 5
19 0 27 -2 18 -5z m205 -10 c-29 -2 -78 -2 -110 0 -32 2 -8 3 52 3 61 0 87 -1
58 -3z m935 0 c-21 -2 -55 -2 -75 0 -21 2 -4 4 37 4 41 0 58 -2 38 -4z m-435
-10 c-35 -2 -91 -2 -125 0 -35 2 -7 3 62 3 69 0 97 -1 63 -3z m485 -28 c-3 -3
-9 2 -12 12 -6 14 -5 15 5 6 7 -7 10 -15 7 -18z m41 -90 c0 -5 -6 1 -14 15 -8
14 -14 30 -14 35 0 6 6 -1 14 -15 8 -14 14 -29 14 -35z m35 -84 c-6 -6 -11 1
-18 29 l-7 25 15 -25 c8 -14 12 -27 10 -29z m16 -61 c30 -43 18 -37 -16 7 -15
20 -23 33 -16 29 6 -3 21 -20 32 -36z m-1212 -117 c-27 -2 -69 -2 -95 0 -27 2
-5 3 47 3 52 0 74 -1 48 -3z m130 -10 c-10 -2 -26 -2 -35 0 -10 3 -2 5 17 5
19 0 27 -2 18 -5z m-585 -21 c162 2 293 0 291 -4 -3 -4 -139 -7 -304 -8 -281
0 -300 1 -300 17 0 14 2 15 9 5 7 -11 66 -13 304 -10z m-5 11 c-54 -2 -142 -2
-195 0 -54 1 -10 3 97 3 107 0 151 -2 98 -3z m0 -50 l-297 -3 -4 -33 c-4 -31
-4 -31 -5 6 l-2 37 303 -2 302 -3 -297 -2z m629 -35 c-3 -7 -5 -2 -5 12 0 14
2 19 5 13 2 -7 2 -19 0 -25z m-340 -40 c-3 -7 -5 -2 -5 12 0 14 2 19 5 13 2
-7 2 -19 0 -25z m1284 15 c12 -16 12 -17 -1 -7 -8 7 -24 14 -35 17 -19 4 -19
5 1 6 12 0 28 -7 35 -16z m-74 -165 c-2 -29 -3 -6 -3 52 0 58 1 81 3 53 2 -29
2 -77 0 -105z m90 5 c-2 -27 -3 -5 -3 47 0 52 1 74 3 48 2 -27 2 -69 0 -95z
m-1880 25 c-2 -18 -4 -4 -4 32 0 36 2 50 4 33 2 -18 2 -48 0 -65z m930 -105
c-3 -10 -5 -4 -5 12 0 17 2 24 5 18 2 -7 2 -21 0 -30z m-920 -105 c-2 -24 -4
-5 -4 42 0 47 2 66 4 43 2 -24 2 -62 0 -85z m560 90 c-3 -7 -5 -2 -5 12 0 14
2 19 5 13 2 -7 2 -19 0 -25z m1230 -171 c-2 -23 -3 -1 -3 48 0 50 1 68 3 42 2
-26 2 -67 0 -90z m90 -39 c-2 -29 -3 -8 -3 47 0 55 1 79 3 53 2 -26 2 -71 0
-100z m-950 75 c-3 -10 -5 -4 -5 12 0 17 2 24 5 18 2 -7 2 -21 0 -30z m-380
-5 c-3 -7 -5 -2 -5 12 0 14 2 19 5 13 2 -7 2 -19 0 -25z m-540 -135 c-2 -21
-4 -4 -4 37 0 41 2 58 4 38 2 -21 2 -55 0 -75z m1336 20 c-18 -2 -48 -2 -65 0
-18 2 -4 4 32 4 36 0 50 -2 33 -4z m-320 -10 c-18 -2 -48 -2 -65 0 -18 2 -4 4
32 4 36 0 50 -2 33 -4z m685 0 c-27 -2 -69 -2 -95 0 -27 2 -5 3 47 3 52 0 74
-1 48 -3z m210 -10 c-10 -2 -26 -2 -35 0 -10 3 -2 5 17 5 19 0 27 -2 18 -5z
m90 -10 c-10 -2 -26 -2 -35 0 -10 3 -2 5 17 5 19 0 27 -2 18 -5z m-1471 -205
c-2 -35 -3 -7 -3 62 0 69 1 97 3 63 2 -35 2 -91 0 -125z m-530 15 c-2 -21 -4
-6 -4 32 0 39 2 55 4 38 2 -18 2 -50 0 -70z m-10 -130 c-2 -16 -4 -5 -4 22 0
28 2 40 4 28 2 -13 2 -35 0 -50z m550 -50 c-3 -10 -5 -2 -5 17 0 19 2 27 5 18
2 -10 2 -26 0 -35z m-269 -56 l287 -2 -292 -3 -293 -2 1 33 c2 30 2 30 6 5 l4
-28 287 -3z m571 -1179 c40 -104 81 -179 143 -262 96 -128 139 -230 179 -422
18 -86 22 -162 31 -569 16 -725 -3 -919 -107 -1125 -71 -140 -97 -152 -544
-255 -122 -28 -143 -36 -178 -68 -18 -16 -23 -17 -27 -6 -15 44 -36 145 -45
219 -14 109 -14 1027 -1 1180 21 232 79 419 170 546 95 132 117 170 159 269
44 101 148 406 172 503 7 28 15 52 18 52 4 0 17 -28 30 -62z m-1225 -185 c33
-106 118 -327 151 -393 18 -36 59 -99 91 -140 101 -132 164 -302 194 -521 16
-117 25 -1041 11 -1188 -6 -68 -13 -127 -16 -131 -5 -8 -309 60 -405 91 -36
12 -81 30 -100 41 -69 37 -149 196 -187 368 -16 77 -18 139 -18 695 0 548 2
620 18 710 38 209 101 366 190 473 23 28 45 51 48 51 3 1 13 -25 23 -56z
m1840 -2258 c-17 -8 -56 -16 -85 -19 -51 -5 -50 -5 15 9 38 8 71 17 74 20 3 3
10 5 16 4 6 0 -3 -7 -20 -14z m-374 -40 c14 -8 21 -14 15 -14 -5 0 -21 6 -35
14 -14 8 -20 14 -15 14 6 0 21 -6 35 -14z m455 -5 c3 -6 -1 -7 -9 -4 -18 7
-21 14 -7 14 6 0 13 -4 16 -10z m-180 -20 c-11 -5 -33 -8 -50 -8 -29 1 -29 1
5 8 49 10 69 10 45 0z m-188 -6 c-3 -3 -12 -4 -19 -1 -8 3 -5 6 6 6 11 1 17
-2 13 -5z m-120 -10 c-3 -3 -12 -4 -19 -1 -8 3 -5 6 6 6 11 1 17 -2 13 -5z
m202 2 c-2 -2 -22 -6 -44 -10 -29 -5 -36 -4 -25 3 13 10 79 16 69 7z m138 -2
c-3 -3 -12 -4 -19 -1 -8 3 -5 6 6 6 11 1 17 -2 13 -5z m-387 -19 c-7 -9 -27
-14 -49 -13 l-36 1 35 4 c19 3 39 9 45 14 15 15 19 10 5 -6z m97 9 c-3 -3 -12
-4 -19 -1 -8 3 -5 6 6 6 11 1 17 -2 13 -5z m563 -37 l25 -4 -26 -2 c-16 -1
-34 9 -50 27 l-24 27 25 -22 c14 -12 36 -23 50 -26z m-507 26 c-7 -2 -21 -2
-30 0 -10 3 -4 5 12 5 17 0 24 -2 18 -5z m-244 -17 c-2 -2 -17 -6 -34 -10 -22
-5 -26 -4 -15 4 14 9 59 15 49 6z m-76 -23 c-7 -2 -19 -2 -25 0 -7 3 -2 5 12
5 14 0 19 -2 13 -5z m950 0 c-13 -2 -35 -2 -50 0 -16 2 -5 4 22 4 28 0 40 -2
28 -4z m-1373 -108 c0 -2 -10 -10 -22 -16 -21 -11 -22 -11 -9 4 13 16 31 23
31 12z m1811 -39 c-16 -19 -115 -52 -213 -71 -117 -22 -357 -45 -455 -44 -81
2 -77 3 47 10 384 23 600 72 600 137 0 15 1 15 17 0 13 -14 14 -20 4 -32z
m-1687 -46 c100 -25 281 -48 466 -59 133 -7 137 -8 52 -10 -171 -2 -490 40
-606 82 -22 7 -40 21 -42 30 -2 14 1 14 24 -3 15 -11 62 -29 106 -40z m789
-77 c-7 -2 -21 -2 -30 0 -10 3 -4 5 12 5 17 0 24 -2 18 -5z m-1016 -49 c-3 -3
-12 -4 -19 -1 -8 3 -5 6 6 6 11 1 17 -2 13 -5z m-59 -11 c-16 -2 -40 -2 -55 0
-16 2 -3 4 27 4 30 0 43 -2 28 -4z m167 -23 c-3 -5 -12 -7 -20 -3 -21 7 -19
13 6 13 11 0 18 -4 14 -10z m-208 -26 c-3 -3 -12 -4 -19 -1 -8 3 -5 6 6 6 11
1 17 -2 13 -5z m-100 -15 c-28 -6 -54 -6 -64 -1 -10 6 5 9 48 10 l64 0 -48 -9z
m157 2 c3 -4 -6 -6 -19 -3 -14 2 -25 6 -25 8 0 8 39 4 44 -5z m-311 -8 c-7 -2
-19 -2 -25 0 -7 3 -2 5 12 5 14 0 19 -2 13 -5z m532 -13 c10 -11 25 -20 34
-21 11 0 12 -2 3 -6 -7 -3 -23 4 -35 15 -12 11 -29 22 -37 25 -13 5 -13 6 1 6
9 1 24 -8 34 -19z m-457 3 c-10 -2 -28 -2 -40 0 -13 2 -5 4 17 4 22 1 32 -1
23 -4z m-180 -10 c-10 -2 -26 -2 -35 0 -10 3 -2 5 17 5 19 0 27 -2 18 -5z
m6622 -2 c0 -6 17 -12 38 -14 l37 -4 -36 -1 c-22 -1 -42 4 -49 13 -9 10 -9 15
-1 15 6 0 11 -4 11 -9z m-6683 -7 c-3 -3 -12 -4 -19 -1 -8 3 -5 6 6 6 11 1 17
-2 13 -5z m846 -21 c-13 -2 -35 -2 -50 0 -16 2 -5 4 22 4 28 0 40 -2 28 -4z
m5995 0 c-10 -2 -28 -2 -40 0 -13 2 -5 4 17 4 22 1 32 -1 23 -4z m-6951 -9
c-3 -3 -12 -4 -19 -1 -8 3 -5 6 6 6 11 1 17 -2 13 -5z m1016 -1 c-7 -2 -19 -2
-25 0 -7 3 -2 5 12 5 14 0 19 -2 13 -5z m-1426 -111 c-13 -15 -14 -21 -4 -33
6 -8 3 -6 -8 3 -19 18 -19 18 0 33 27 20 31 19 12 -3z m1832 -20 c0 -14 -2
-14 -9 3 -6 14 -9 16 -10 5 -2 -8 -2 -18 -1 -22 3 -19 -155 -65 -249 -73 -51
-4 -49 -3 18 10 40 7 96 21 125 29 29 8 57 16 62 17 17 3 37 39 31 55 -4 12
-2 12 14 4 11 -6 20 -18 19 -28z m5961 23 c11 -13 11 -18 0 -28 -10 -9 -11 -9
-5 1 4 8 0 19 -11 27 -11 8 -14 15 -8 15 6 0 17 -7 24 -15z m-7690 -69 c119
-34 359 -65 520 -67 67 -1 85 -3 63 -9 -39 -9 -324 13 -446 35 -114 20 -207
46 -207 57 0 5 -6 6 -12 2 -7 -4 -10 -4 -6 1 4 4 2 15 -4 24 -7 9 -1 6 12 -6
14 -12 50 -28 80 -37z m7666 37 c-7 -46 -313 -101 -596 -107 -91 -2 -129 -2
-85 0 313 13 628 65 665 109 16 19 19 19 16 -2z m-1483 -80 c-7 -2 -19 -2 -25
0 -7 3 -2 5 12 5 14 0 19 -2 13 -5z m-4785 -8 c-10 -10 -352 -32 -378 -24 -16
5 10 8 75 9 55 1 129 6 165 10 85 9 145 11 138 5z m5097 -16 c117 -6 114 -7
-40 -2 -93 2 -190 8 -215 13 -33 7 -23 7 40 3 47 -3 144 -9 215 -14z"/>
<path d="M3934 659 c-19 -22 -19 -22 4 -10 12 6 22 16 22 21 0 15 -5 12 -26
-11z"/>
</g>
</svg>
